<svg
    width="139"
    height="31"
    viewBox="0 0 139 31"
    fill="none"
    xmlns="http://www.w3.org/2000/svg"
>
    <path
    d="M9.33789 23.293C7.41406 23.293 5.90527 22.5947 4.81152 21.1982H4.57715C4.7334 22.5654 4.81152 23.3564 4.81152 23.5713V30.207H0.34375V6.62305H3.97656L4.60645 8.74707H4.81152C5.85645 7.12598 7.4043 6.31543 9.45508 6.31543C11.3887 6.31543 12.9023 7.0625 13.9961 8.55664C15.0898 10.0508 15.6367 12.126 15.6367 14.7822C15.6367 16.5303 15.3779 18.0488 14.8604 19.3379C14.3525 20.627 13.625 21.6084 12.6777 22.2822C11.7305 22.9561 10.6172 23.293 9.33789 23.293ZM8.01953 9.88965C6.91602 9.88965 6.11035 10.2314 5.60254 10.915C5.09473 11.5889 4.83105 12.707 4.81152 14.2695V14.7529C4.81152 16.5107 5.07031 17.7705 5.58789 18.5322C6.11523 19.2939 6.94531 19.6748 8.07812 19.6748C10.0801 19.6748 11.0811 18.0244 11.0811 14.7236C11.0811 13.1123 10.832 11.9062 10.334 11.1055C9.8457 10.2949 9.07422 9.88965 8.01953 9.88965ZM33.2453 23H28.7775V13.4346C28.7775 11.0713 27.8986 9.88965 26.1408 9.88965C24.8908 9.88965 23.9875 10.3145 23.4309 11.1641C22.8742 12.0137 22.5959 13.3906 22.5959 15.2949V23H18.1281V0.207031H22.5959V4.85059C22.5959 5.21191 22.5617 6.06152 22.4934 7.39941L22.3908 8.71777H22.6252C23.6213 7.11621 25.2033 6.31543 27.3713 6.31543C29.2951 6.31543 30.7551 6.83301 31.7512 7.86816C32.7473 8.90332 33.2453 10.3877 33.2453 12.3213V23ZM43.4271 9.49414C42.4799 9.49414 41.7377 9.79688 41.2006 10.4023C40.6635 10.998 40.3559 11.8477 40.2777 12.9512H46.5473C46.5277 11.8477 46.2396 10.998 45.683 10.4023C45.1264 9.79688 44.3744 9.49414 43.4271 9.49414ZM44.057 23.293C41.4203 23.293 39.3598 22.5654 37.8754 21.1104C36.391 19.6553 35.6488 17.5947 35.6488 14.9287C35.6488 12.1846 36.3324 10.0654 37.6996 8.57129C39.0766 7.06738 40.976 6.31543 43.3979 6.31543C45.7123 6.31543 47.5141 6.97461 48.8031 8.29297C50.0922 9.61133 50.7367 11.4326 50.7367 13.7568V15.9248H40.1752C40.224 17.1943 40.6 18.1855 41.3031 18.8984C42.0062 19.6113 42.9926 19.9678 44.2621 19.9678C45.2484 19.9678 46.1811 19.8652 47.06 19.6602C47.9389 19.4551 48.8568 19.1279 49.8139 18.6787V22.1357C49.0326 22.5264 48.1977 22.8145 47.309 23C46.4203 23.1953 45.3363 23.293 44.057 23.293ZM68.2867 23H63.8189V13.4346C63.8189 12.2529 63.609 11.3691 63.1891 10.7832C62.7691 10.1875 62.1002 9.88965 61.1822 9.88965C59.9322 9.88965 59.0289 10.3096 58.4723 11.1494C57.9156 11.9795 57.6373 13.3613 57.6373 15.2949V23H53.1695V6.62305H56.5826L57.1832 8.71777H57.4322C57.9303 7.92676 58.6139 7.33105 59.483 6.93066C60.3619 6.52051 61.358 6.31543 62.4713 6.31543C64.3756 6.31543 65.8209 6.83301 66.8072 7.86816C67.7936 8.89355 68.2867 10.3779 68.2867 12.3213V23ZM75.2459 14.7822C75.2459 16.4033 75.5096 17.6289 76.0369 18.459C76.574 19.2891 77.4432 19.7041 78.6443 19.7041C79.8357 19.7041 80.6902 19.2939 81.2078 18.4736C81.7352 17.6436 81.9988 16.4131 81.9988 14.7822C81.9988 13.1611 81.7352 11.9453 81.2078 11.1348C80.6805 10.3242 79.8162 9.91895 78.615 9.91895C77.4236 9.91895 76.5643 10.3242 76.0369 11.1348C75.5096 11.9355 75.2459 13.1514 75.2459 14.7822ZM86.5691 14.7822C86.5691 17.4482 85.866 19.5332 84.4598 21.0371C83.0535 22.541 81.0955 23.293 78.5857 23.293C77.0135 23.293 75.6268 22.9512 74.4256 22.2676C73.2244 21.5742 72.3016 20.583 71.657 19.2939C71.0125 18.0049 70.6902 16.501 70.6902 14.7822C70.6902 12.1064 71.3885 10.0264 72.785 8.54199C74.1814 7.05762 76.1443 6.31543 78.6736 6.31543C80.2459 6.31543 81.6326 6.65723 82.8338 7.34082C84.035 8.02441 84.9578 9.00586 85.6023 10.2852C86.2469 11.5645 86.5691 13.0635 86.5691 14.7822ZM98.0547 23.293C96.1309 23.293 94.6221 22.5947 93.5283 21.1982H93.2939C93.4502 22.5654 93.5283 23.3564 93.5283 23.5713V30.207H89.0605V6.62305H92.6934L93.3232 8.74707H93.5283C94.5732 7.12598 96.1211 6.31543 98.1719 6.31543C100.105 6.31543 101.619 7.0625 102.713 8.55664C103.807 10.0508 104.354 12.126 104.354 14.7822C104.354 16.5303 104.095 18.0488 103.577 19.3379C103.069 20.627 102.342 21.6084 101.395 22.2822C100.447 22.9561 99.334 23.293 98.0547 23.293ZM96.7363 9.88965C95.6328 9.88965 94.8271 10.2314 94.3193 10.915C93.8115 11.5889 93.5479 12.707 93.5283 14.2695V14.7529C93.5283 16.5107 93.7871 17.7705 94.3047 18.5322C94.832 19.2939 95.6621 19.6748 96.7949 19.6748C98.7969 19.6748 99.7979 18.0244 99.7979 14.7236C99.7979 13.1123 99.5488 11.9062 99.0508 11.1055C98.5625 10.2949 97.791 9.88965 96.7363 9.88965ZM110.404 14.7822C110.404 16.4033 110.668 17.6289 111.196 18.459C111.733 19.2891 112.602 19.7041 113.803 19.7041C114.994 19.7041 115.849 19.2939 116.366 18.4736C116.894 17.6436 117.157 16.4131 117.157 14.7822C117.157 13.1611 116.894 11.9453 116.366 11.1348C115.839 10.3242 114.975 9.91895 113.774 9.91895C112.582 9.91895 111.723 10.3242 111.196 11.1348C110.668 11.9355 110.404 13.1514 110.404 14.7822ZM121.728 14.7822C121.728 17.4482 121.025 19.5332 119.618 21.0371C118.212 22.541 116.254 23.293 113.744 23.293C112.172 23.293 110.785 22.9512 109.584 22.2676C108.383 21.5742 107.46 20.583 106.816 19.2939C106.171 18.0049 105.849 16.501 105.849 14.7822C105.849 12.1064 106.547 10.0264 107.944 8.54199C109.34 7.05762 111.303 6.31543 113.832 6.31543C115.404 6.31543 116.791 6.65723 117.992 7.34082C119.194 8.02441 120.116 9.00586 120.761 10.2852C121.405 11.5645 121.728 13.0635 121.728 14.7822ZM129.405 23.293C127.481 23.293 125.967 22.5459 124.864 21.0518C123.77 19.5576 123.223 17.4873 123.223 14.8408C123.223 12.1553 123.78 10.0654 124.893 8.57129C126.016 7.06738 127.559 6.31543 129.522 6.31543C131.582 6.31543 133.155 7.11621 134.239 8.71777H134.385C134.161 7.49707 134.048 6.4082 134.048 5.45117V0.207031H138.531V23H135.103L134.239 20.876H134.048C133.033 22.4873 131.485 23.293 129.405 23.293ZM130.972 19.7334C132.115 19.7334 132.95 19.4014 133.477 18.7373C134.014 18.0732 134.307 16.9453 134.356 15.3535V14.8701C134.356 13.1123 134.082 11.8525 133.536 11.0908C132.998 10.3291 132.12 9.94824 130.899 9.94824C129.903 9.94824 129.126 10.373 128.57 11.2227C128.023 12.0625 127.749 13.2881 127.749 14.8994C127.749 16.5107 128.028 17.7217 128.584 18.5322C129.141 19.333 129.937 19.7334 130.972 19.7334Z"
    fill="#2E2AC6"
    />
</svg>