<svg
    width="167"
    height="37"
    viewBox="0 0 167 37"
    fill="none"
    xmlns="http://www.w3.org/2000/svg"
>
    <path
    d="M11.6055 28.3516C9.29688 28.3516 7.48633 27.5137 6.17383 25.8379H5.89258C6.08008 27.4785 6.17383 28.4277 6.17383 28.6855V36.6484H0.8125V8.34766H5.17188L5.92773 10.8965H6.17383C7.42773 8.95117 9.28516 7.97852 11.7461 7.97852C14.0664 7.97852 15.8828 8.875 17.1953 10.668C18.5078 12.4609 19.1641 14.9512 19.1641 18.1387C19.1641 20.2363 18.8535 22.0586 18.2324 23.6055C17.623 25.1523 16.75 26.3301 15.6133 27.1387C14.4766 27.9473 13.1406 28.3516 11.6055 28.3516ZM10.0234 12.2676C8.69922 12.2676 7.73242 12.6777 7.12305 13.498C6.51367 14.3066 6.19727 15.6484 6.17383 17.5234V18.1035C6.17383 20.2129 6.48438 21.7246 7.10547 22.6387C7.73828 23.5527 8.73438 24.0098 10.0938 24.0098C12.4961 24.0098 13.6973 22.0293 13.6973 18.0684C13.6973 16.1348 13.3984 14.6875 12.8008 13.7266C12.2148 12.7539 11.2891 12.2676 10.0234 12.2676ZM40.2944 28H34.933V16.5215C34.933 13.6855 33.8784 12.2676 31.769 12.2676C30.269 12.2676 29.185 12.7773 28.517 13.7969C27.8491 14.8164 27.5151 16.4688 27.5151 18.7539V28H22.1537V0.648438H27.5151V6.2207C27.5151 6.6543 27.4741 7.67383 27.392 9.2793L27.269 10.8613H27.5502C28.7455 8.93945 30.644 7.97852 33.2455 7.97852C35.5541 7.97852 37.3061 8.59961 38.5014 9.8418C39.6967 11.084 40.2944 12.8652 40.2944 15.1855V28ZM52.5126 11.793C51.3759 11.793 50.4852 12.1562 49.8407 12.8828C49.1962 13.5977 48.827 14.6172 48.7333 15.9414H56.2567C56.2333 14.6172 55.8876 13.5977 55.2196 12.8828C54.5516 12.1562 53.6493 11.793 52.5126 11.793ZM53.2684 28.3516C50.1044 28.3516 47.6317 27.4785 45.8505 25.7324C44.0692 23.9863 43.1786 21.5137 43.1786 18.3145C43.1786 15.0215 43.9989 12.4785 45.6395 10.6855C47.2919 8.88086 49.5712 7.97852 52.4774 7.97852C55.2548 7.97852 57.4169 8.76953 58.9637 10.3516C60.5106 11.9336 61.2841 14.1191 61.2841 16.9082V19.5098H48.6102C48.6688 21.0332 49.12 22.2227 49.9637 23.0781C50.8075 23.9336 51.9911 24.3613 53.5145 24.3613C54.6981 24.3613 55.8173 24.2383 56.872 23.9922C57.9266 23.7461 59.0282 23.3535 60.1766 22.8145V26.9629C59.2391 27.4316 58.2372 27.7773 57.1708 28C56.1044 28.2344 54.8036 28.3516 53.2684 28.3516ZM82.3441 28H76.9827V16.5215C76.9827 15.1035 76.7308 14.043 76.2269 13.3398C75.723 12.625 74.9202 12.2676 73.8187 12.2676C72.3187 12.2676 71.2347 12.7715 70.5667 13.7793C69.8988 14.7754 69.5648 16.4336 69.5648 18.7539V28H64.2034V8.34766H68.2991L69.0198 10.8613H69.3187C69.9163 9.91211 70.7366 9.19727 71.7796 8.7168C72.8343 8.22461 74.0296 7.97852 75.3655 7.97852C77.6507 7.97852 79.3851 8.59961 80.5687 9.8418C81.7523 11.0723 82.3441 12.8535 82.3441 15.1855V28ZM90.6951 18.1387C90.6951 20.084 91.0115 21.5547 91.6443 22.5508C92.2888 23.5469 93.3318 24.0449 94.7732 24.0449C96.2029 24.0449 97.2283 23.5527 97.8494 22.5684C98.4822 21.5723 98.7986 20.0957 98.7986 18.1387C98.7986 16.1934 98.4822 14.7344 97.8494 13.7617C97.2166 12.7891 96.1795 12.3027 94.738 12.3027C93.3084 12.3027 92.2771 12.7891 91.6443 13.7617C91.0115 14.7227 90.6951 16.1816 90.6951 18.1387ZM104.283 18.1387C104.283 21.3379 103.439 23.8398 101.752 25.6445C100.064 27.4492 97.7146 28.3516 94.7029 28.3516C92.8162 28.3516 91.1521 27.9414 89.7107 27.1211C88.2693 26.2891 87.1619 25.0996 86.3884 23.5527C85.615 22.0059 85.2283 20.2012 85.2283 18.1387C85.2283 14.9277 86.0662 12.4316 87.742 10.6504C89.4177 8.86914 91.7732 7.97852 94.8084 7.97852C96.6951 7.97852 98.3591 8.38867 99.8005 9.20898C101.242 10.0293 102.349 11.207 103.123 12.7422C103.896 14.2773 104.283 16.0762 104.283 18.1387ZM118.066 28.3516C115.757 28.3516 113.946 27.5137 112.634 25.8379H112.353C112.54 27.4785 112.634 28.4277 112.634 28.6855V36.6484H107.273V8.34766H111.632L112.388 10.8965H112.634C113.888 8.95117 115.745 7.97852 118.206 7.97852C120.527 7.97852 122.343 8.875 123.655 10.668C124.968 12.4609 125.624 14.9512 125.624 18.1387C125.624 20.2363 125.314 22.0586 124.693 23.6055C124.083 25.1523 123.21 26.3301 122.073 27.1387C120.937 27.9473 119.601 28.3516 118.066 28.3516ZM116.484 12.2676C115.159 12.2676 114.193 12.6777 113.583 13.498C112.974 14.3066 112.657 15.6484 112.634 17.5234V18.1035C112.634 20.2129 112.945 21.7246 113.566 22.6387C114.198 23.5527 115.195 24.0098 116.554 24.0098C118.956 24.0098 120.157 22.0293 120.157 18.0684C120.157 16.1348 119.859 14.6875 119.261 13.7266C118.675 12.7539 117.749 12.2676 116.484 12.2676ZM132.885 18.1387C132.885 20.084 133.202 21.5547 133.835 22.5508C134.479 23.5469 135.522 24.0449 136.964 24.0449C138.393 24.0449 139.419 23.5527 140.04 22.5684C140.673 21.5723 140.989 20.0957 140.989 18.1387C140.989 16.1934 140.673 14.7344 140.04 13.7617C139.407 12.7891 138.37 12.3027 136.928 12.3027C135.499 12.3027 134.467 12.7891 133.835 13.7617C133.202 14.7227 132.885 16.1816 132.885 18.1387ZM146.473 18.1387C146.473 21.3379 145.63 23.8398 143.942 25.6445C142.255 27.4492 139.905 28.3516 136.893 28.3516C135.006 28.3516 133.342 27.9414 131.901 27.1211C130.46 26.2891 129.352 25.0996 128.579 23.5527C127.805 22.0059 127.419 20.2012 127.419 18.1387C127.419 14.9277 128.256 12.4316 129.932 10.6504C131.608 8.86914 133.964 7.97852 136.999 7.97852C138.885 7.97852 140.549 8.38867 141.991 9.20898C143.432 10.0293 144.54 11.207 145.313 12.7422C146.087 14.2773 146.473 16.0762 146.473 18.1387ZM155.686 28.3516C153.377 28.3516 151.561 27.4551 150.236 25.6621C148.924 23.8691 148.268 21.3848 148.268 18.209C148.268 14.9863 148.936 12.4785 150.272 10.6855C151.619 8.88086 153.471 7.97852 155.826 7.97852C158.299 7.97852 160.186 8.93945 161.486 10.8613H161.662C161.393 9.39648 161.258 8.08984 161.258 6.94141V0.648438H166.637V28H162.524L161.486 25.4512H161.258C160.039 27.3848 158.182 28.3516 155.686 28.3516ZM157.566 24.0801C158.938 24.0801 159.94 23.6816 160.572 22.8848C161.217 22.0879 161.568 20.7344 161.627 18.8242V18.2441C161.627 16.1348 161.299 14.623 160.643 13.709C159.998 12.7949 158.943 12.3379 157.479 12.3379C156.283 12.3379 155.352 12.8477 154.684 13.8672C154.027 14.875 153.699 16.3457 153.699 18.2793C153.699 20.2129 154.033 21.666 154.701 22.6387C155.369 23.5996 156.324 24.0801 157.566 24.0801Z"
    fill="#2E2AC6"
    />
</svg>