<svg width="43" height="43" viewBox="0 0 43 43" fill="none" xmlns="http://www.w3.org/2000/svg">
<path d="M33.0124 37.8258C33.456 38.4592 34.3323 38.6167 34.9348 38.1319C37.2313 36.2842 39.1174 33.9701 40.4649 31.3369C42.0254 28.2874 42.8162 24.9025 42.7683 21.4772C42.7205 18.052 41.8355 14.6905 40.1905 11.6858C38.77 9.09116 36.82 6.83065 34.4728 5.04775C33.8571 4.58004 32.9854 4.76195 32.5598 5.40749V5.40749C32.1341 6.05302 32.3162 6.91722 32.9271 7.39123C34.8954 8.91836 36.5332 10.8366 37.7343 13.0304C39.16 15.6345 39.927 18.5478 39.9685 21.5163C40.0099 24.4848 39.3246 27.4184 37.9721 30.0613C36.8328 32.2878 35.2491 34.2511 33.3243 35.8325C32.7268 36.3234 32.5689 37.1924 33.0124 37.8258V37.8258Z" fill="#5A67D8"/>
<path d="M29.8001 33.2387C30.2438 33.8724 31.122 34.031 31.7127 33.5316C33.2666 32.2179 34.5485 30.6061 35.4796 28.7865C36.624 26.5502 37.2039 24.0679 37.1689 21.5561C37.1338 19.0442 36.4848 16.5791 35.2784 14.3757C34.2968 12.5827 32.9704 11.0073 31.3804 9.73754C30.776 9.25482 29.9026 9.43796 29.4767 10.0837V10.0837C29.0509 10.7295 29.2353 11.5926 29.8298 12.0874C31.0432 13.0973 32.0592 14.3289 32.8213 15.7209C33.8082 17.5235 34.3392 19.5403 34.3679 21.5952C34.3966 23.6501 33.9221 25.6809 32.9859 27.5104C32.263 28.9231 31.2817 30.1826 30.0971 31.2259C29.5166 31.7372 29.3564 32.6051 29.8001 33.2387V33.2387Z" fill="#5A67D8"/>
<path d="M28.7704 21.7704C28.7704 25.6364 25.6364 28.7704 21.7704 28.7704C17.9044 28.7704 14.7704 25.6364 14.7704 21.7704C14.7704 17.9044 17.9044 14.7704 21.7704 14.7704C25.6364 14.7704 28.7704 17.9044 28.7704 21.7704ZM17.5704 21.7704C17.5704 24.09 19.4508 25.9704 21.7704 25.9704C24.09 25.9704 25.9704 24.09 25.9704 21.7704C25.9704 19.4508 24.09 17.5704 21.7704 17.5704C19.4508 17.5704 17.5704 19.4508 17.5704 21.7704Z" fill="#5A67D8"/>
<path d="M14.7704 21.7704H17.5704V40.6704C17.5704 41.4436 16.9436 42.0704 16.1704 42.0704V42.0704C15.3972 42.0704 14.7704 41.4436 14.7704 40.6704V21.7704Z" fill="#5A67D8"/>
</svg>
